<?xml version="1.0" standalone="no"?>
<!DOCTYPE svg PUBLIC "-//W3C//DTD SVG 20010904//EN"
        "http://www.w3.org/TR/2001/REC-SVG-20010904/DTD/svg10.dtd">
<svg version="1.0" xmlns="http://www.w3.org/2000/svg"
     width="139.000000pt" height="139.000000pt" viewBox="0 0 139.000000 139.000000"
     preserveAspectRatio="xMidYMid meet">
    <metadata>
        Created by potrace 1.14, written by Peter Selinger 2001-2017
    </metadata>
    <g transform="translate(0.000000,139.000000) scale(0.100000,-0.100000)"
       fill="#000000" stroke="none">
        <path d="M190 1313 c-57 -8 -110 -34 -110 -55 0 -16 5 -19 25 -14 14 3 36 9
50 12 21 5 25 3 26 -17 0 -13 2 -33 4 -44 2 -11 6 -56 10 -100 4 -44 9 -83 11
-86 2 -4 6 -24 10 -45 3 -22 8 -41 10 -43 4 -4 8 54 7 87 -1 22 21 7 41 -27
18 -31 18 -36 4 -82 -17 -50 -12 -106 12 -134 14 -17 0 -47 -50 -102 -61 -66
-96 -116 -135 -188 -32 -60 -36 -77 -32 -118 5 -60 33 -89 102 -109 41 -11 58
-12 92 -2 48 14 61 6 59 -39 -1 -15 2 -27 6 -27 4 0 8 18 8 40 l0 41 94 43
c51 24 129 67 173 95 44 28 83 51 86 51 3 0 17 -18 30 -41 14 -22 26 -36 29
-29 2 7 21 -2 48 -23 57 -43 111 -71 179 -91 200 -59 305 61 218 247 -22 45
-39 71 -98 147 -7 8 -30 34 -52 57 l-40 41 23 32 c12 17 24 30 25 28 2 -2 6
-23 10 -48 9 -58 15 -64 16 -14 2 84 7 103 47 177 99 184 98 289 -3 336 -39
19 -80 20 -165 6 -67 -11 -216 -57 -297 -92 l-83 -35 -32 23 c-18 13 -53 39
-78 58 -86 65 -188 96 -280 84z m131 -66 c46 -14 146 -73 186 -109 l22 -21
-54 -32 c-30 -18 -74 -50 -99 -70 l-44 -36 -26 34 c-35 46 -86 172 -86 213 0
31 3 34 28 34 16 0 49 -6 73 -13z m792 -25 c9 -8 17 -23 17 -32 0 -28 -48
-113 -92 -164 l-43 -48 -3 98 c-1 55 2 106 8 114 8 13 10 13 10 -2 0 -9 5 -20
11 -23 6 -4 10 -1 8 6 -1 8 -1 23 1 34 l1 20 9 -20 c7 -17 9 -14 9 13 1 30 3
33 24 26 12 -3 30 -13 40 -22z m-141 -98 c1 -150 0 -159 -29 -188 -49 -49 -58
-50 -98 -11 -20 19 -60 55 -88 80 l-52 46 25 19 c109 87 220 154 233 141 4 -4
8 -44 9 -87z m-147 67 c-6 -5 -43 -32 -83 -60 l-73 -52 -24 19 -24 19 27 13
c101 50 201 84 177 61z m330 -93 c-22 -73 -135 -267 -157 -268 -5 0 -8 25 -8
55 0 53 2 58 53 113 30 32 62 72 72 90 23 38 50 44 40 10z m-564 -78 c-82 -75
-175 -155 -181 -158 -4 -1 -19 15 -33 36 l-26 40 27 25 c26 24 127 94 167 115
15 8 25 6 46 -11 l28 -22 -28 -25z m103 -59 c22 -27 43 -58 48 -70 7 -21 6
-22 -25 -16 -17 4 -40 9 -50 12 -13 3 -32 -9 -62 -40 -35 -37 -42 -51 -40 -79
4 -50 12 -62 60 -93 44 -27 45 -29 46 -84 1 -56 1 -56 12 -21 l11 35 6 -35 6
-35 8 35 9 35 5 -30 c3 -22 -2 -34 -18 -47 -12 -10 -26 -15 -31 -12 -18 11
-221 259 -232 282 -10 22 -6 29 38 71 75 70 158 141 165 141 3 -1 23 -23 44
-49z m59 -7 c3 -3 3 -12 0 -20 -4 -11 -9 -12 -19 -3 -8 6 -11 15 -8 20 6 10
18 12 27 3z m224 -95 c1 -32 -2 -59 -6 -59 -9 0 -71 69 -71 78 0 11 63 52 69
46 3 -3 7 -32 8 -65z m-157 30 c30 -31 30 -32 13 -53 -10 -11 -11 -15 -3 -8
18 16 38 15 53 -1 63 -69 61 -65 45 -90 -16 -23 -80 -90 -132 -137 l-28 -25 6
45 c3 25 12 62 21 82 19 47 19 75 0 112 -19 36 -19 37 3 29 16 -7 16 -6 0 11
-10 9 -18 21 -18 26 0 5 -3 15 -6 24 -10 26 12 18 46 -15z m-459 -82 c-14 -15
-23 -17 -38 -9 -20 11 -22 29 -8 72 l8 24 28 -34 c28 -34 29 -35 10 -53z m355
-13 c17 -3 23 -13 26 -44 4 -43 -3 -50 -53 -50 -34 0 -79 26 -79 45 0 16 46
51 69 53 9 0 26 -1 37 -4z m-235 -109 c49 -63 74 -93 147 -172 12 -13 20 -28
18 -32 -17 -27 -269 -171 -300 -171 -3 0 -6 79 -6 175 0 142 2 173 13 169 15
-6 47 65 47 105 0 28 6 23 81 -74z m529 6 c108 -112 184 -243 182 -309 -5
-129 -196 -121 -378 17 -39 29 -50 44 -52 69 -3 30 6 43 90 129 51 52 99 101
106 109 18 19 21 18 52 -15z m-686 -194 c4 -190 4 -190 -50 -201 -28 -6 -33
-4 -43 21 l-11 28 5 -27 c5 -26 3 -28 -25 -28 -43 0 -69 16 -85 53 -12 29 -11
36 12 82 41 80 90 153 140 206 25 27 48 48 49 46 2 -2 6 -83 8 -180z"/>
        <path d="M1010 1094 c0 -14 4 -23 10 -19 6 3 10 15 10 26 0 10 -4 19 -10 19
-5 0 -10 -12 -10 -26z"/>
    </g>
</svg>
